<svg width="332" height="336" viewBox="0 0 332 336" fill="none" xmlns="http://www.w3.org/2000/svg">
<path d="M166.154 82C166.154 128.949 140.782 170.952 105 170.952C140.782 170.952 166.154 212.958 166.154 259.903C166.154 212.958 191.526 170.952 227.309 170.952C191.526 170.952 166.154 128.949 166.154 82Z" fill="#4362B1"/>
<path d="M238.427 170.952C238.427 194.429 225.746 215.427 207.849 215.427C225.746 215.427 238.427 236.432 238.427 259.903C238.427 236.432 251.109 215.427 269.006 215.427C251.109 215.427 238.427 194.429 238.427 170.952Z" fill="#4362B1"/>
<path d="M252.328 82C252.328 105.474 239.646 126.476 221.749 126.476C239.643 126.476 252.328 147.48 252.328 170.952C252.328 147.48 265.009 126.476 282.906 126.476C265.009 126.476 252.328 105.474 252.328 82Z" fill="#4362B1"/>
<g clip-path="url(#clip0_0_1)">
<path fill-rule="evenodd" clip-rule="evenodd" d="M228 114C228 176.96 176.96 228 114 228C51.0395 228 0 176.96 0 114C0 51.0395 51.0395 0 114 0C176.96 0 228 51.0395 228 114ZM218.88 113.24C218.88 170.745 172.265 217.36 114.76 217.36C57.2561 217.36 10.64 170.745 10.64 113.24C10.64 55.7361 57.2561 9.12 114.76 9.12C172.265 9.12 218.88 55.7361 218.88 113.24ZM120.166 57.3695L154.478 129.876L170.675 164.16H157.452L147.569 142.93L144.413 136.126L114.217 69.312L100.51 97.89L83.6453 136.126L77.2225 150.093L70.8969 164.16H57.76L108.559 57.3695L114.217 45.6L120.166 57.3695Z" fill="#FF07AA"/>
</g>
<defs>
<clipPath id="clip0_0_1">
<rect width="228" height="228" fill="white"/>
</clipPath>
</defs>
</svg>
