<svg width="517" height="227" viewBox="0 0 517 227" fill="none" xmlns="http://www.w3.org/2000/svg">
<g filter="url(#filter0_d_2_2956)">
<path d="M502.75 10H14.75C13.6454 10 12.75 10.8954 12.75 12V204C12.75 205.105 13.6454 206 14.75 206H502.75C503.855 206 504.75 205.105 504.75 204V12C504.75 10.8954 503.855 10 502.75 10Z" fill="#001F33"/>
<path d="M177.122 37H47.4059C45.3331 37 43.6528 38.6803 43.6528 40.7531C43.6528 42.8259 45.3331 44.5063 47.4059 44.5063H177.122C179.194 44.5063 180.875 42.8259 180.875 40.7531C180.875 38.6803 179.194 37 177.122 37Z" fill="#0097FB"/>
<path d="M197.469 57H67.7531C65.6803 57 64 58.6803 64 60.7531C64 62.8259 65.6803 64.5063 67.7531 64.5063H197.469C199.542 64.5063 201.222 62.8259 201.222 60.7531C201.222 58.6803 199.542 57 197.469 57Z" fill="#0097FB"/>
<path d="M219.536 118.33H47.4059C45.3331 118.33 43.6528 120.01 43.6528 122.083V122.083C43.6528 124.156 45.3331 125.836 47.4059 125.836H219.536C221.608 125.836 223.289 124.156 223.289 122.083C223.289 120.01 221.608 118.33 219.536 118.33Z" fill="#0097FB"/>
<path d="M314.883 77H142.753C140.68 77 139 78.6803 139 80.7531C139 82.8259 140.68 84.5063 142.753 84.5063H314.883C316.956 84.5063 318.636 82.8259 318.636 80.7531C318.636 78.6803 316.956 77 314.883 77Z" fill="#0097FB"/>
<path d="M285.845 60.753C285.845 58.68 287.525 57 289.598 57H356.718C358.791 57 360.471 58.68 360.471 60.753C360.471 62.826 358.791 64.506 356.718 64.506H289.598C287.525 64.506 285.845 62.826 285.845 60.753Z" fill="#D7BA7D"/>
<path d="M311.829 138.704H172.133C170.06 138.704 168.38 140.384 168.38 142.457C168.38 144.53 170.06 146.21 172.133 146.21H311.829C313.902 146.21 315.582 144.53 315.582 142.457C315.582 140.384 313.902 138.704 311.829 138.704Z" fill="#0097FB"/>
<g filter="url(#filter1_d_2_2956)">
<path d="M35.85 40.8C35.45 41.2 35.1167 41.667 34.85 42.2C34.6278 42.733 34.5167 43.289 34.5167 43.867V45.867C34.5167 46.178 34.4278 46.489 34.25 46.8C34.0722 47.067 33.8278 47.267 33.5167 47.4C33.3389 47.489 33.1389 47.511 32.9167 47.467H30.9167C30.4278 47.511 30.0278 47.378 29.7167 47.067C29.4056 46.711 29.25 46.311 29.25 45.867V43.867C29.25 43.289 29.1389 42.733 28.9167 42.2C28.6944 41.667 28.3833 41.2 27.9833 40.8C27.45 40.311 27.0278 39.733 26.7167 39.067C26.4056 38.356 26.25 37.622 26.25 36.867C26.25 35.844 26.5167 34.911 27.05 34.067C27.2722 33.622 27.5389 33.244 27.85 32.933C28.2056 32.578 28.5833 32.289 28.9833 32.067C29.4278 31.8 29.8944 31.6 30.3833 31.467C30.8722 31.333 31.3833 31.267 31.9167 31.267C32.9389 31.267 33.8722 31.511 34.7167 32C35.6056 32.489 36.2944 33.178 36.7833 34.067C37.2722 34.911 37.5167 35.844 37.5167 36.867C37.5167 37.667 37.3611 38.4 37.05 39.067C36.7833 39.733 36.3833 40.311 35.85 40.8ZM33.25 43.133H30.5167V45.867C30.5167 45.956 30.5389 46.044 30.5833 46.133C30.6722 46.222 30.7833 46.267 30.9167 46.267H32.9167C33.0056 46.267 33.0722 46.244 33.1167 46.2C33.2056 46.111 33.25 46 33.25 45.867V43.133Z" fill="#FFFF00"/>
</g>
</g>
<g filter="url(#filter2_d_2_2956)">
<mask id="mask0_2_2956" style="mask-type:luminance" maskUnits="userSpaceOnUse" x="77" y="36" width="227" height="173">
<path d="M301.934 36H79.8162C78.6751 36 77.75 36.8954 77.75 38V207C77.75 208.105 78.6751 209 79.8162 209H301.934C303.075 209 304 208.105 304 207V38C304 36.8954 303.075 36 301.934 36Z" fill="white"/>
</mask>
<g mask="url(#mask0_2_2956)">
<path d="M79.8162 36.5H301.934C302.814 36.5 303.5 37.1868 303.5 38V207C303.5 207.813 302.814 208.5 301.934 208.5H79.8162C78.9357 208.5 78.25 207.813 78.25 207V38C78.25 37.1868 78.9357 36.5 79.8162 36.5Z" fill="#001F33" stroke="#606060"/>
<g filter="url(#filter3_d_2_2956)">
<path d="M102.39 192.533C101.976 192.933 101.632 193.4 101.356 193.933C101.127 194.466 101.012 195.022 101.012 195.6V197.6C101.012 197.911 100.92 198.222 100.737 198.533C100.553 198.8 100.3 199 99.979 199.133C99.7953 199.222 99.5887 199.244 99.3591 199.2H97.2929C96.7878 199.244 96.3746 199.111 96.0532 198.8C95.7318 198.444 95.5711 198.044 95.5711 197.6V195.6C95.5711 195.022 95.4563 194.466 95.2267 193.933C94.9971 193.4 94.6757 192.933 94.2624 192.533C93.7115 192.044 93.2753 191.466 92.9539 190.8C92.6325 190.089 92.4717 189.355 92.4717 188.6C92.4717 187.577 92.7473 186.644 93.2982 185.8C93.5278 185.355 93.8033 184.977 94.1247 184.666C94.4921 184.311 94.8823 184.022 95.2955 183.8C95.7547 183.533 96.2368 183.333 96.7419 183.2C97.247 183.066 97.775 183 98.326 183C99.3821 183 100.346 183.244 101.219 183.733C102.137 184.222 102.849 184.911 103.354 185.8C103.859 186.644 104.111 187.577 104.111 188.6C104.111 189.4 103.951 190.133 103.629 190.8C103.354 191.466 102.941 192.044 102.39 192.533ZM99.7035 194.866H96.8797V197.6C96.8797 197.689 96.9026 197.777 96.9485 197.866C97.0403 197.955 97.1551 198 97.2929 198H99.3591C99.451 198 99.5198 197.977 99.5658 197.933C99.6576 197.844 99.7035 197.733 99.7035 197.6V194.866Z" fill="#FFFF00"/>
</g>
<g opacity="0.8">
<path d="M112.876 72C112.876 70.343 114.263 69 115.975 69H224.451C226.163 69 227.55 70.343 227.55 72C227.55 73.657 226.163 75 224.451 75H115.975C114.263 75 112.876 73.657 112.876 72Z" fill="#808080"/>
</g>
<g opacity="0.8">
<path d="M112.876 49C112.876 47.343 114.263 46 115.975 46H224.451C226.163 46 227.55 47.343 227.55 49C227.55 50.657 226.163 52 224.451 52H115.975C114.263 52 112.876 50.657 112.876 49Z" fill="#808080"/>
</g>
<path opacity="0.16" d="M112.876 120C112.876 118.343 114.263 117 115.975 117H286.437C288.149 117 289.537 118.343 289.537 120C289.537 121.657 288.149 123 286.437 123H115.975C114.263 123 112.876 121.657 112.876 120Z" fill="#808080"/>
<path opacity="0.16" d="M112.876 144C112.876 142.343 114.263 141 115.975 141H193.458C195.17 141 196.557 142.343 196.557 144C196.557 145.657 195.17 147 193.458 147H115.975C114.263 147 112.876 145.657 112.876 144Z" fill="#A0A0A0"/>
<path opacity="0.16" d="M91.1804 99C91.1804 97.343 92.5678 96 94.2797 96H171.763C173.474 96 174.862 97.343 174.862 99C174.862 100.657 173.474 102 171.763 102H94.2797C92.5678 102 91.1804 100.657 91.1804 99Z" fill="#A0A0A0"/>
<path opacity="0.6" d="M101.315 173H99.4793V166.798H99.3739L96.9678 172.549H95.6496L93.2362 166.798H93.1309V173H91.295V163.84H93.6298L96.2457 170.156H96.3645L98.9875 163.84H101.315V173ZM106.627 173.146C104.404 173.146 103.066 171.781 103.066 169.502C103.066 167.243 104.424 165.859 106.627 165.859C108.83 165.859 110.187 167.236 110.187 169.502C110.187 171.788 108.851 173.146 106.627 173.146ZM106.627 171.686C107.644 171.686 108.227 170.886 108.227 169.502C108.227 168.131 107.637 167.325 106.627 167.325C105.611 167.325 105.027 168.131 105.027 169.502C105.027 170.886 105.604 171.686 106.627 171.686ZM111.748 173V166.011H113.598V167.122H113.715C113.907 166.424 114.654 165.897 115.572 165.897C115.834 165.897 116.156 165.929 116.319 165.979V167.604C116.169 167.554 115.723 167.503 115.415 167.503C114.371 167.503 113.657 168.106 113.657 169.09V173H111.748ZM122.103 171.026H123.88C123.598 172.327 122.346 173.146 120.575 173.146C118.372 173.146 117.073 171.8 117.073 169.541C117.073 167.268 118.399 165.859 120.549 165.859C122.681 165.859 123.939 167.179 123.939 169.388V169.94H118.975V170.036C119.002 171.102 119.631 171.769 120.628 171.769C121.382 171.769 121.9 171.502 122.103 171.026ZM120.556 167.236C119.67 167.236 119.047 167.852 118.982 168.792H122.064C122.025 167.833 121.447 167.236 120.556 167.236ZM135.238 173L134.524 170.778H131.199L130.471 173H128.484L131.77 163.84H134.098L137.383 173H135.238ZM132.812 165.7L131.625 169.344H134.104L132.93 165.7H132.812ZM144.813 168.449H143.03C142.899 167.776 142.406 167.332 141.593 167.332C140.564 167.332 139.986 168.1 139.986 169.49C139.986 170.899 140.57 171.68 141.593 171.68C142.374 171.68 142.885 171.305 143.03 170.607H144.813C144.656 172.143 143.475 173.146 141.593 173.146C139.338 173.146 138.059 171.819 138.059 169.49C138.059 167.186 139.33 165.859 141.593 165.859C143.508 165.859 144.656 166.887 144.813 168.449ZM146.918 164.342H148.827V166.075H150.328V167.478H148.827V170.689C148.827 171.318 149.115 171.61 149.765 171.61C150.014 171.61 150.145 171.597 150.328 171.578V172.943C150.092 172.987 149.738 173.025 149.371 173.025C147.614 173.025 146.918 172.473 146.918 171.115V167.478H145.79V166.075H146.918V164.342ZM152.892 164.938C152.302 164.938 151.81 164.481 151.81 163.91C151.81 163.333 152.302 162.875 152.892 162.875C153.483 162.875 153.967 163.333 153.967 163.91C153.967 164.481 153.483 164.938 152.892 164.938ZM151.935 173V166.011H153.843V173H151.935ZM158.984 173.146C156.761 173.146 155.424 171.781 155.424 169.502C155.424 167.243 156.781 165.859 158.984 165.859C161.188 165.859 162.545 167.236 162.545 169.502C162.545 171.788 161.207 173.146 158.984 173.146ZM158.984 171.686C160.001 171.686 160.584 170.886 160.584 169.502C160.584 168.131 159.994 167.325 158.984 167.325C157.967 167.325 157.385 168.131 157.385 169.502C157.385 170.886 157.961 171.686 158.984 171.686ZM164.106 173V166.011H165.955V167.135H166.073C166.408 166.348 167.142 165.859 168.211 165.859C169.818 165.859 170.684 166.811 170.684 168.48V173H168.775V168.899C168.775 167.916 168.349 167.401 167.444 167.401C166.559 167.401 166.014 168.011 166.014 168.957V173H164.106ZM172.375 168.049C172.375 166.741 173.582 165.859 175.386 165.859C177.221 165.859 178.304 166.602 178.409 167.922H176.645C176.546 167.458 176.107 167.173 175.399 167.173C174.716 167.173 174.212 167.484 174.212 167.941C174.212 168.296 174.52 168.519 175.188 168.665L176.546 168.95C177.95 169.249 178.579 169.82 178.579 170.861C178.579 172.245 177.288 173.146 175.392 173.146C173.484 173.146 172.33 172.391 172.199 171.07H174.061C174.205 171.553 174.671 171.838 175.431 171.838C176.173 171.838 176.684 171.521 176.684 171.058C176.684 170.702 176.408 170.486 175.772 170.347L174.461 170.061C173.057 169.763 172.375 169.122 172.375 168.049ZM181.523 173.159C180.822 173.159 180.363 172.702 180.363 172.08C180.363 171.458 180.822 171.007 181.523 171.007C182.232 171.007 182.685 171.458 182.685 172.08C182.685 172.702 182.232 173.159 181.523 173.159ZM186.193 173.159C185.491 173.159 185.032 172.702 185.032 172.08C185.032 171.458 185.491 171.007 186.193 171.007C186.901 171.007 187.353 171.458 187.353 172.08C187.353 172.702 186.901 173.159 186.193 173.159ZM190.862 173.159C190.16 173.159 189.701 172.702 189.701 172.08C189.701 171.458 190.16 171.007 190.862 171.007C191.57 171.007 192.023 171.458 192.023 172.08C192.023 172.702 191.57 173.159 190.862 173.159Z" fill="#A0A0A0"/>
</g>
</g>
<path d="M118.437 197H113.27V187.72H118.437V188.672H114.349V191.674H118.202V192.614H114.349V196.048H118.437V197ZM121.991 193.439L119.585 190.043H120.792L122.626 192.722L124.454 190.043H125.647L123.242 193.439L125.781 197H124.575L122.626 194.163L120.665 197H119.471L121.991 193.439ZM130.408 189.916C131.276 189.916 131.968 190.214 132.484 190.811C133 191.408 133.258 192.305 133.258 193.502C133.258 194.294 133.14 194.958 132.903 195.496C132.666 196.033 132.332 196.439 131.9 196.714C131.472 196.989 130.967 197.127 130.383 197.127C130.015 197.127 129.691 197.078 129.412 196.981C129.132 196.884 128.893 196.752 128.694 196.587C128.495 196.422 128.33 196.243 128.199 196.048H128.123C128.136 196.213 128.151 196.412 128.167 196.645C128.189 196.877 128.199 197.08 128.199 197.254V200.11H127.139V190.043H128.009L128.148 191.071H128.199C128.335 190.86 128.5 190.667 128.694 190.494C128.889 190.316 129.126 190.176 129.405 190.075C129.689 189.969 130.023 189.916 130.408 189.916ZM130.224 190.805C129.742 190.805 129.352 190.898 129.056 191.084C128.764 191.27 128.55 191.549 128.415 191.922C128.28 192.29 128.208 192.753 128.199 193.312V193.515C128.199 194.103 128.263 194.601 128.39 195.007C128.521 195.413 128.735 195.722 129.031 195.934C129.331 196.145 129.733 196.251 130.237 196.251C130.668 196.251 131.028 196.135 131.316 195.902C131.604 195.669 131.817 195.345 131.957 194.931C132.101 194.512 132.173 194.031 132.173 193.49C132.173 192.669 132.012 192.017 131.69 191.535C131.373 191.048 130.884 190.805 130.224 190.805ZM136.159 197H135.099V187.123H136.159V197ZM140.99 189.929C141.819 189.929 142.435 190.115 142.837 190.487C143.239 190.86 143.44 191.454 143.44 192.271V197H142.672L142.469 195.972H142.418C142.223 196.226 142.02 196.439 141.809 196.613C141.597 196.782 141.352 196.911 141.072 197C140.797 197.085 140.459 197.127 140.057 197.127C139.633 197.127 139.257 197.053 138.927 196.905C138.601 196.757 138.343 196.532 138.152 196.232C137.966 195.931 137.873 195.551 137.873 195.089C137.873 194.395 138.148 193.862 138.698 193.49C139.248 193.117 140.086 192.914 141.212 192.88L142.412 192.83V192.404C142.412 191.803 142.283 191.382 142.024 191.141C141.766 190.9 141.402 190.779 140.933 190.779C140.569 190.779 140.222 190.832 139.892 190.938C139.562 191.044 139.248 191.169 138.952 191.312L138.628 190.513C138.942 190.352 139.301 190.214 139.708 190.1C140.114 189.986 140.541 189.929 140.99 189.929ZM142.399 193.572L141.339 193.617C140.471 193.651 139.86 193.792 139.504 194.042C139.149 194.292 138.971 194.645 138.971 195.102C138.971 195.5 139.092 195.794 139.333 195.984C139.574 196.175 139.894 196.27 140.292 196.27C140.909 196.27 141.415 196.099 141.809 195.756C142.202 195.413 142.399 194.899 142.399 194.213V193.572ZM146.665 190.043V197H145.611V190.043H146.665ZM146.15 187.44C146.324 187.44 146.472 187.498 146.595 187.612C146.722 187.722 146.785 187.895 146.785 188.132C146.785 188.365 146.722 188.539 146.595 188.653C146.472 188.767 146.324 188.824 146.15 188.824C145.968 188.824 145.816 188.767 145.693 188.653C145.575 188.539 145.516 188.365 145.516 188.132C145.516 187.895 145.575 187.722 145.693 187.612C145.816 187.498 145.968 187.44 146.15 187.44ZM152.193 189.916C153.019 189.916 153.643 190.119 154.066 190.525C154.489 190.927 154.701 191.575 154.701 192.468V197H153.66V192.538C153.66 191.958 153.526 191.524 153.26 191.236C152.997 190.949 152.593 190.805 152.047 190.805C151.277 190.805 150.736 191.023 150.422 191.458C150.109 191.894 149.953 192.527 149.953 193.356V197H148.899V190.043H149.75L149.908 191.046H149.965C150.113 190.8 150.302 190.595 150.53 190.43C150.759 190.261 151.015 190.134 151.298 190.049C151.582 189.96 151.88 189.916 152.193 189.916ZM165.911 196.987L164.673 192.938C164.618 192.764 164.565 192.595 164.514 192.43C164.468 192.26 164.423 192.1 164.381 191.947C164.343 191.791 164.307 191.647 164.273 191.516C164.243 191.38 164.218 191.264 164.197 191.167H164.152C164.135 191.264 164.112 191.38 164.083 191.516C164.053 191.647 164.017 191.791 163.975 191.947C163.937 192.104 163.894 192.269 163.848 192.442C163.801 192.612 163.748 192.783 163.689 192.957L162.394 196.987H161.207L159.29 190.03H160.382L161.385 193.871C161.452 194.125 161.516 194.376 161.575 194.626C161.639 194.871 161.692 195.104 161.734 195.324C161.78 195.54 161.814 195.728 161.835 195.889H161.886C161.912 195.783 161.939 195.656 161.969 195.508C162.003 195.36 162.039 195.204 162.077 195.039C162.119 194.869 162.163 194.702 162.21 194.537C162.257 194.368 162.303 194.209 162.35 194.061L163.632 190.03H164.768L166.006 194.055C166.069 194.258 166.131 194.469 166.19 194.689C166.253 194.91 166.311 195.123 166.361 195.331C166.412 195.534 166.448 195.716 166.469 195.876H166.52C166.537 195.733 166.569 195.555 166.615 195.343C166.662 195.132 166.715 194.899 166.774 194.645C166.837 194.391 166.903 194.133 166.971 193.871L167.986 190.03H169.059L167.136 196.987H165.911ZM171.382 190.043V197H170.329V190.043H171.382ZM170.868 187.44C171.042 187.44 171.19 187.498 171.312 187.612C171.439 187.722 171.503 187.895 171.503 188.132C171.503 188.365 171.439 188.539 171.312 188.653C171.19 188.767 171.042 188.824 170.868 188.824C170.686 188.824 170.534 188.767 170.411 188.653C170.293 188.539 170.233 188.365 170.233 188.132C170.233 187.895 170.293 187.722 170.411 187.612C170.534 187.498 170.686 187.44 170.868 187.44ZM175.864 196.264C176.037 196.264 176.215 196.249 176.397 196.219C176.579 196.19 176.727 196.154 176.841 196.111V196.93C176.719 196.985 176.547 197.032 176.327 197.07C176.111 197.108 175.9 197.127 175.692 197.127C175.324 197.127 174.99 197.063 174.689 196.937C174.389 196.805 174.148 196.585 173.966 196.276C173.788 195.967 173.699 195.54 173.699 194.994V190.868H172.709V190.354L173.706 189.941L174.125 188.431H174.759V190.043H176.797V190.868H174.759V194.962C174.759 195.398 174.859 195.724 175.058 195.94C175.261 196.156 175.529 196.264 175.864 196.264ZM179.304 187.123V190.075C179.304 190.244 179.3 190.415 179.292 190.589C179.283 190.758 179.268 190.915 179.247 191.059H179.317C179.461 190.813 179.643 190.608 179.863 190.443C180.087 190.274 180.341 190.147 180.625 190.062C180.908 189.973 181.208 189.929 181.526 189.929C182.084 189.929 182.55 190.018 182.922 190.195C183.299 190.373 183.58 190.648 183.767 191.021C183.957 191.393 184.052 191.875 184.052 192.468V197H183.011V192.538C183.011 191.958 182.878 191.524 182.611 191.236C182.349 190.949 181.945 190.805 181.399 190.805C180.883 190.805 180.47 190.904 180.161 191.103C179.856 191.298 179.636 191.585 179.501 191.966C179.37 192.347 179.304 192.813 179.304 193.363V197H178.25V187.123H179.304ZM195.58 197L194.437 194.055H190.717L189.581 197H188.489L192.12 187.682H193.091L196.697 197H195.58ZM194.113 193.096L193.028 190.17C193.002 190.094 192.96 189.969 192.901 189.795C192.846 189.622 192.789 189.442 192.729 189.256C192.67 189.07 192.622 188.919 192.583 188.805C192.541 188.979 192.495 189.152 192.444 189.326C192.397 189.495 192.351 189.654 192.304 189.802C192.258 189.946 192.217 190.068 192.184 190.17L191.079 193.096H194.113ZM201.096 189.916C201.963 189.916 202.655 190.214 203.171 190.811C203.688 191.408 203.946 192.305 203.946 193.502C203.946 194.294 203.827 194.958 203.59 195.496C203.353 196.033 203.019 196.439 202.587 196.714C202.16 196.989 201.654 197.127 201.07 197.127C200.702 197.127 200.378 197.078 200.099 196.981C199.82 196.884 199.581 196.752 199.382 196.587C199.183 196.422 199.018 196.243 198.887 196.048H198.811C198.823 196.213 198.838 196.412 198.855 196.645C198.876 196.877 198.887 197.08 198.887 197.254V200.11H197.827V190.043H198.696L198.836 191.071H198.887C199.022 190.86 199.187 190.667 199.382 190.494C199.576 190.316 199.813 190.176 200.093 190.075C200.376 189.969 200.711 189.916 201.096 189.916ZM200.912 190.805C200.429 190.805 200.04 190.898 199.744 191.084C199.452 191.27 199.238 191.549 199.103 191.922C198.967 192.29 198.895 192.753 198.887 193.312V193.515C198.887 194.103 198.95 194.601 199.077 195.007C199.208 195.413 199.422 195.722 199.718 195.934C200.019 196.145 200.421 196.251 200.924 196.251C201.356 196.251 201.716 196.135 202.003 195.902C202.291 195.669 202.505 195.345 202.645 194.931C202.788 194.512 202.86 194.031 202.86 193.49C202.86 192.669 202.7 192.017 202.378 191.535C202.061 191.048 201.572 190.805 200.912 190.805ZM209.056 189.916C209.923 189.916 210.615 190.214 211.131 190.811C211.648 191.408 211.906 192.305 211.906 193.502C211.906 194.294 211.787 194.958 211.55 195.496C211.313 196.033 210.979 196.439 210.547 196.714C210.12 196.989 209.614 197.127 209.03 197.127C208.662 197.127 208.338 197.078 208.059 196.981C207.78 196.884 207.541 196.752 207.342 196.587C207.143 196.422 206.978 196.243 206.847 196.048H206.771C206.783 196.213 206.798 196.412 206.815 196.645C206.836 196.877 206.847 197.08 206.847 197.254V200.11H205.787V190.043H206.656L206.796 191.071H206.847C206.982 190.86 207.147 190.667 207.342 190.494C207.536 190.316 207.773 190.176 208.053 190.075C208.336 189.969 208.671 189.916 209.056 189.916ZM208.872 190.805C208.389 190.805 208 190.898 207.704 191.084C207.412 191.27 207.198 191.549 207.062 191.922C206.927 192.29 206.855 192.753 206.847 193.312V193.515C206.847 194.103 206.91 194.601 207.037 195.007C207.168 195.413 207.382 195.722 207.678 195.934C207.979 196.145 208.381 196.251 208.884 196.251C209.316 196.251 209.676 196.135 209.963 195.902C210.251 195.669 210.465 195.345 210.604 194.931C210.748 194.512 210.82 194.031 210.82 193.49C210.82 192.669 210.66 192.017 210.338 191.535C210.021 191.048 209.532 190.805 208.872 190.805ZM217.987 197L214.87 188.786H214.819C214.836 188.96 214.851 189.171 214.864 189.421C214.876 189.671 214.887 189.944 214.896 190.24C214.904 190.532 214.908 190.83 214.908 191.135V197H213.905V187.72H215.505L218.444 195.438H218.488L221.472 187.72H223.059V197H221.992V191.059C221.992 190.784 221.996 190.508 222.005 190.233C222.013 189.954 222.024 189.692 222.037 189.446C222.049 189.197 222.062 188.981 222.075 188.799H222.024L218.869 197H217.987ZM228.042 189.929C228.871 189.929 229.487 190.115 229.889 190.487C230.291 190.86 230.492 191.454 230.492 192.271V197H229.724L229.521 195.972H229.47C229.275 196.226 229.072 196.439 228.86 196.613C228.649 196.782 228.403 196.911 228.124 197C227.849 197.085 227.51 197.127 227.108 197.127C226.685 197.127 226.309 197.053 225.979 196.905C225.653 196.757 225.395 196.532 225.204 196.232C225.018 195.931 224.925 195.551 224.925 195.089C224.925 194.395 225.2 193.862 225.75 193.49C226.3 193.117 227.138 192.914 228.264 192.88L229.463 192.83V192.404C229.463 191.803 229.334 191.382 229.076 191.141C228.818 190.9 228.454 190.779 227.984 190.779C227.62 190.779 227.273 190.832 226.943 190.938C226.613 191.044 226.3 191.169 226.004 191.312L225.68 190.513C225.993 190.352 226.353 190.214 226.759 190.1C227.166 189.986 227.593 189.929 228.042 189.929ZM229.451 193.572L228.391 193.617C227.523 193.651 226.912 193.792 226.556 194.042C226.201 194.292 226.023 194.645 226.023 195.102C226.023 195.5 226.144 195.794 226.385 195.984C226.626 196.175 226.945 196.27 227.343 196.27C227.961 196.27 228.467 196.099 228.86 195.756C229.254 195.413 229.451 194.899 229.451 194.213V193.572ZM235.932 189.916C236.799 189.916 237.491 190.214 238.007 190.811C238.524 191.408 238.782 192.305 238.782 193.502C238.782 194.294 238.663 194.958 238.426 195.496C238.189 196.033 237.855 196.439 237.423 196.714C236.996 196.989 236.49 197.127 235.906 197.127C235.538 197.127 235.214 197.078 234.935 196.981C234.656 196.884 234.417 196.752 234.218 196.587C234.019 196.422 233.854 196.243 233.723 196.048H233.646C233.659 196.213 233.674 196.412 233.691 196.645C233.712 196.877 233.723 197.08 233.723 197.254V200.11H232.663V190.043H233.532L233.672 191.071H233.723C233.858 190.86 234.023 190.667 234.218 190.494C234.412 190.316 234.649 190.176 234.929 190.075C235.212 189.969 235.547 189.916 235.932 189.916ZM235.748 190.805C235.265 190.805 234.876 190.898 234.58 191.084C234.288 191.27 234.074 191.549 233.938 191.922C233.803 192.29 233.731 192.753 233.723 193.312V193.515C233.723 194.103 233.786 194.601 233.913 195.007C234.044 195.413 234.258 195.722 234.554 195.934C234.855 196.145 235.257 196.251 235.76 196.251C236.192 196.251 236.552 196.135 236.839 195.902C237.127 195.669 237.341 195.345 237.48 194.931C237.624 194.512 237.696 194.031 237.696 193.49C237.696 192.669 237.535 192.017 237.214 191.535C236.896 191.048 236.408 190.805 235.748 190.805ZM251.414 197H250.169L245.11 189.205H245.06C245.072 189.412 245.087 189.649 245.104 189.916C245.121 190.178 245.134 190.46 245.142 190.76C245.155 191.056 245.161 191.359 245.161 191.668V197H244.158V187.72H245.396L250.436 195.489H250.48C250.472 195.341 250.461 195.132 250.449 194.861C250.436 194.586 250.423 194.292 250.411 193.979C250.402 193.661 250.398 193.367 250.398 193.096V187.72H251.414V197ZM256.39 189.929C257.22 189.929 257.835 190.115 258.237 190.487C258.639 190.86 258.84 191.454 258.84 192.271V197H258.072L257.869 195.972H257.818C257.624 196.226 257.421 196.439 257.209 196.613C256.997 196.782 256.752 196.911 256.473 197C256.198 197.085 255.859 197.127 255.457 197.127C255.034 197.127 254.657 197.053 254.327 196.905C254.001 196.757 253.743 196.532 253.553 196.232C253.367 195.931 253.273 195.551 253.273 195.089C253.273 194.395 253.549 193.862 254.099 193.49C254.649 193.117 255.487 192.914 256.612 192.88L257.812 192.83V192.404C257.812 191.803 257.683 191.382 257.425 191.141C257.167 190.9 256.803 190.779 256.333 190.779C255.969 190.779 255.622 190.832 255.292 190.938C254.962 191.044 254.649 191.169 254.353 191.312L254.029 190.513C254.342 190.352 254.702 190.214 255.108 190.1C255.514 189.986 255.942 189.929 256.39 189.929ZM257.799 193.572L256.739 193.617C255.872 193.651 255.26 193.792 254.905 194.042C254.549 194.292 254.372 194.645 254.372 195.102C254.372 195.5 254.492 195.794 254.733 195.984C254.975 196.175 255.294 196.27 255.692 196.27C256.31 196.27 256.815 196.099 257.209 195.756C257.603 195.413 257.799 194.899 257.799 194.213V193.572ZM262.541 197L259.9 190.043H261.03L262.56 194.251C262.666 194.539 262.774 194.857 262.884 195.204C262.994 195.551 263.07 195.83 263.112 196.042H263.157C263.208 195.83 263.292 195.551 263.411 195.204C263.529 194.852 263.637 194.535 263.734 194.251L265.264 190.043H266.394L263.747 197H262.541ZM268.565 190.043V197H267.511V190.043H268.565ZM268.051 187.44C268.224 187.44 268.372 187.498 268.495 187.612C268.622 187.722 268.686 187.895 268.686 188.132C268.686 188.365 268.622 188.539 268.495 188.653C268.372 188.767 268.224 188.824 268.051 188.824C267.869 188.824 267.716 188.767 267.594 188.653C267.475 188.539 267.416 188.365 267.416 188.132C267.416 187.895 267.475 187.722 267.594 187.612C267.716 187.498 267.869 187.44 268.051 187.44ZM273.478 189.916C274.07 189.916 274.578 190.047 275.001 190.31C275.425 190.572 275.748 190.94 275.973 191.414C276.197 191.884 276.309 192.434 276.309 193.064V193.718H271.504C271.517 194.535 271.72 195.157 272.113 195.584C272.507 196.012 273.061 196.226 273.776 196.226C274.216 196.226 274.606 196.185 274.944 196.105C275.283 196.025 275.634 195.906 275.998 195.75V196.676C275.647 196.833 275.298 196.947 274.951 197.019C274.608 197.091 274.202 197.127 273.732 197.127C273.063 197.127 272.479 196.992 271.98 196.721C271.485 196.446 271.1 196.044 270.825 195.515C270.55 194.986 270.412 194.338 270.412 193.572C270.412 192.823 270.537 192.176 270.787 191.63C271.041 191.08 271.396 190.657 271.853 190.36C272.314 190.064 272.856 189.916 273.478 189.916ZM273.465 190.779C272.903 190.779 272.454 190.963 272.12 191.332C271.785 191.7 271.586 192.214 271.523 192.874H275.205C275.2 192.459 275.135 192.095 275.008 191.782C274.885 191.465 274.697 191.219 274.443 191.046C274.189 190.868 273.863 190.779 273.465 190.779ZM287.456 197L286.313 194.055H282.593L281.457 197H280.365L283.996 187.682H284.967L288.573 197H287.456ZM285.989 193.096L284.904 190.17C284.878 190.094 284.836 189.969 284.777 189.795C284.722 189.622 284.665 189.442 284.605 189.256C284.546 189.07 284.498 188.919 284.459 188.805C284.417 188.979 284.371 189.152 284.32 189.326C284.273 189.495 284.227 189.654 284.18 189.802C284.134 189.946 284.093 190.068 284.06 190.17L282.955 193.096H285.989ZM289.861 197V187.72H290.94V197H289.861Z" fill="white"/>
<defs>
<filter id="filter0_d_2_2956" x="0.75" y="0" width="516" height="220" filterUnits="userSpaceOnUse" color-interpolation-filters="sRGB">
<feFlood flood-opacity="0" result="BackgroundImageFix"/>
<feColorMatrix in="SourceAlpha" type="matrix" values="0 0 0 0 0 0 0 0 0 0 0 0 0 0 0 0 0 0 127 0" result="hardAlpha"/>
<feOffset dy="2"/>
<feGaussianBlur stdDeviation="6"/>
<feColorMatrix type="matrix" values="0 0 0 0 0 0 0 0 0 0 0 0 0 0 0 0 0 0 0.6 0"/>
<feBlend mode="normal" in2="BackgroundImageFix" result="effect1_dropShadow_2_2956"/>
<feBlend mode="normal" in="SourceGraphic" in2="effect1_dropShadow_2_2956" result="shape"/>
</filter>
<filter id="filter1_d_2_2956" x="22.25" y="31.267" width="19.2667" height="24.222" filterUnits="userSpaceOnUse" color-interpolation-filters="sRGB">
<feFlood flood-opacity="0" result="BackgroundImageFix"/>
<feColorMatrix in="SourceAlpha" type="matrix" values="0 0 0 0 0 0 0 0 0 0 0 0 0 0 0 0 0 0 127 0" result="hardAlpha"/>
<feOffset dy="4"/>
<feGaussianBlur stdDeviation="2"/>
<feComposite in2="hardAlpha" operator="out"/>
<feColorMatrix type="matrix" values="0 0 0 0 0 0 0 0 0 0 0 0 0 0 0 0 0 0 0.25 0"/>
<feBlend mode="normal" in2="BackgroundImageFix" result="effect1_dropShadow_2_2956"/>
<feBlend mode="normal" in="SourceGraphic" in2="effect1_dropShadow_2_2956" result="shape"/>
</filter>
<filter id="filter2_d_2_2956" x="61.75" y="22" width="258.25" height="205" filterUnits="userSpaceOnUse" color-interpolation-filters="sRGB">
<feFlood flood-opacity="0" result="BackgroundImageFix"/>
<feColorMatrix in="SourceAlpha" type="matrix" values="0 0 0 0 0 0 0 0 0 0 0 0 0 0 0 0 0 0 127 0" result="hardAlpha"/>
<feOffset dy="2"/>
<feGaussianBlur stdDeviation="8"/>
<feColorMatrix type="matrix" values="0 0 0 0 0 0 0 0 0 0 0 0 0 0 0 0 0 0 0.36 0"/>
<feBlend mode="normal" in2="BackgroundImageFix" result="effect1_dropShadow_2_2956"/>
<feBlend mode="normal" in="SourceGraphic" in2="effect1_dropShadow_2_2956" result="shape"/>
</filter>
<filter id="filter3_d_2_2956" x="88.4717" y="183" width="19.6397" height="24.222" filterUnits="userSpaceOnUse" color-interpolation-filters="sRGB">
<feFlood flood-opacity="0" result="BackgroundImageFix"/>
<feColorMatrix in="SourceAlpha" type="matrix" values="0 0 0 0 0 0 0 0 0 0 0 0 0 0 0 0 0 0 127 0" result="hardAlpha"/>
<feOffset dy="4"/>
<feGaussianBlur stdDeviation="2"/>
<feComposite in2="hardAlpha" operator="out"/>
<feColorMatrix type="matrix" values="0 0 0 0 0 0 0 0 0 0 0 0 0 0 0 0 0 0 0.25 0"/>
<feBlend mode="normal" in2="BackgroundImageFix" result="effect1_dropShadow_2_2956"/>
<feBlend mode="normal" in="SourceGraphic" in2="effect1_dropShadow_2_2956" result="shape"/>
</filter>
</defs>
</svg>
