<svg width="10" height="10" viewBox="0 0 10 10" fill="none" xmlns="http://www.w3.org/2000/svg">
<path d="M1.91677 3.58851L0.748358 4.80228C0.269192 5.30005 0 5.97517 0 6.67911C0 7.38306 0.269192 8.05818 0.748358 8.55594C1.22752 9.05371 1.87741 9.33335 2.55505 9.33335C3.2327 9.33335 3.88259 9.05371 4.36175 8.55594L5.9185 6.93788C6.20745 6.63767 6.42286 6.26984 6.54664 5.86526C6.67043 5.46068 6.69898 5.03115 6.6299 4.61273C6.56083 4.19431 6.39614 3.79921 6.14965 3.4606C5.90317 3.12198 5.58209 2.84972 5.21337 2.66669L4.71432 3.1851C4.66366 3.23783 4.61959 3.29698 4.58317 3.36115C4.86806 3.44623 5.12664 3.60707 5.33335 3.82778C5.54006 4.04849 5.68775 4.32141 5.7618 4.61958C5.83586 4.91775 5.83373 5.23083 5.75561 5.52788C5.6775 5.82493 5.52611 6.09566 5.31641 6.3133L3.76051 7.93048C3.44092 8.26248 3.00746 8.449 2.55548 8.449C2.10351 8.449 1.67004 8.26248 1.35045 7.93048C1.03085 7.59848 0.851308 7.14819 0.851308 6.67867C0.851308 6.20915 1.03085 5.75886 1.35045 5.42686L2.02578 4.7262C1.93049 4.35528 1.89368 3.97078 1.91677 3.58763V3.58851Z" fill="#606060"/>
<path d="M3.48967 2.15542C3.17183 2.42564 2.93488 2.75673 2.79871 3.1209C2.66255 3.48508 2.63114 3.8717 2.70713 4.24833C2.78311 4.62496 2.96427 4.98059 3.2354 5.28539C3.50653 5.59018 3.85972 5.83524 4.26532 6L4.99132 5.38206C4.6737 5.30964 4.38411 5.16744 4.15163 4.96974C3.91915 4.77203 3.75198 4.5258 3.66692 4.25578C3.58186 3.98576 3.5819 3.70146 3.66704 3.43146C3.75219 3.16146 3.91943 2.91526 4.15197 2.71761L5.86346 1.26196C6.21501 0.963115 6.69182 0.795228 7.18899 0.795228C7.68616 0.795228 8.16297 0.963115 8.51453 1.26196C8.86608 1.5608 9.06358 1.96611 9.06358 2.38873C9.06358 2.81136 8.86608 3.21667 8.51453 3.51551L7.77167 4.14619C7.87658 4.48064 7.91686 4.82703 7.89157 5.17104L9.17683 4.0785C9.70391 3.63045 10 3.02277 10 2.38913C10 1.75549 9.70391 1.14781 9.17683 0.699761C8.64974 0.251712 7.93487 0 7.18946 0C6.44405 0 5.72918 0.251712 5.20209 0.699761L3.48967 2.15542Z" fill="#606060"/>
</svg>
