<svg width="70" height="70" viewBox="0 0 70 70" fill="none" xmlns="http://www.w3.org/2000/svg">
<circle cx="35" cy="35" r="35" fill="#FF07AA"/>
<path d="M47.4274 39.8743L36.8932 17.6135L35.0667 14L33.3296 17.6135L17.7333 50.4H21.7666L23.7087 46.0813L25.6806 41.7929L30.8582 30.0539L35.0667 21.28L44.3372 41.7929L45.3064 43.8821L48.3406 50.4H52.4L47.4274 39.8743Z" fill="white"/>
<path d="M47.4274 39.8743L36.8932 17.6135L35.0667 14L33.3296 17.6135L17.7333 50.4H21.7666L23.7087 46.0813L25.6806 41.7929L30.8582 30.0539L35.0667 21.28L44.3372 41.7929L45.3064 43.8821L48.3406 50.4H52.4L47.4274 39.8743Z" stroke="white"/>
</svg>
