<svg width="190" height="38" viewBox="0 0 190 38" fill="none" xmlns="http://www.w3.org/2000/svg">
<path fill-rule="evenodd" clip-rule="evenodd" d="M3.53032 18.5148V19.0263C6.71522 19.3495 8.27439 20.9594 8.27439 24.0472V29.6895C8.27439 33.1226 9.51032 34.5159 12.5653 34.5159H13.4304V37.5411H12.2389C7.1272 37.5411 4.72189 35.1593 4.72189 30.1603V25.3778C4.72189 21.9447 3.53032 20.8087 0 20.8087V16.7323C3.53032 16.7323 4.72189 15.5963 4.72189 12.1633V7.38081C4.72189 2.38182 7.13037 0 12.2389 0H13.4304V3.02826H12.5653C9.51032 3.02826 8.27439 4.42158 8.27439 7.85466V13.4938C8.27439 16.5849 6.71522 18.1947 3.53032 18.5148ZM40.8364 19.0263V18.5148C37.6515 18.1916 36.0923 16.5817 36.0923 13.4938V7.85152C36.0923 4.41844 34.8564 3.02513 31.8014 3.02513H30.9363V0H32.1278C37.2364 0 39.6448 2.38182 39.6448 7.38081V12.1633C39.6448 15.5963 40.8364 16.7323 44.3667 16.7323V20.8087C40.8364 20.8087 39.6448 21.9447 39.6448 25.3778V30.1603C39.6448 35.1593 37.2395 37.5411 32.1278 37.5411H30.9363V34.5159H31.8014C34.8564 34.5159 36.0923 33.1226 36.0923 29.6895V24.0472C36.0923 20.9594 37.6515 19.3495 40.8364 19.0263ZM64.0363 5.11926L54.6053 30.4205H58.2622L59.9944 25.4862H71.2803L72.995 30.4205H76.582L67.1334 5.11926H64.0363ZM70.4754 22.9841H60.8343L65.6811 9.14366L70.4754 22.9841ZM81.3413 11.8733V37.5594H84.6308V29.8256C85.9139 30.4788 87.372 30.8054 89.0051 30.8054C91.3614 30.8054 93.1928 30.2164 94.4993 29.0382C95.8058 27.86 96.459 26.3144 96.459 24.4014V17.6649C96.459 15.8102 95.8583 14.3229 94.6568 13.2031C93.467 12.0832 91.7231 11.5233 89.4251 11.5233C88.4219 11.5233 87.4537 11.6983 86.5205 12.0482C85.5873 12.3865 84.8524 12.7948 84.3158 13.273L83.9309 11.8733H81.3413ZM88.5852 28.2858C87.1271 28.2858 85.8089 27.9534 84.6308 27.2885V16.0026C84.8757 15.6294 85.3948 15.2094 86.188 14.7428C86.9929 14.2762 87.9611 14.0429 89.0926 14.0429C90.2358 14.0429 91.1981 14.3346 91.9797 14.9178C92.7729 15.501 93.1695 16.3293 93.1695 17.4024V24.7513C93.1695 25.8712 92.7671 26.7402 91.9622 27.3584C91.169 27.9767 90.0433 28.2858 88.5852 28.2858ZM102.303 37.5594V11.8733H104.893L105.278 13.273C105.814 12.7948 106.549 12.3865 107.482 12.0482C108.416 11.6983 109.384 11.5233 110.387 11.5233C112.685 11.5233 114.429 12.0832 115.619 13.2031C116.82 14.3229 117.421 15.8102 117.421 17.6649V24.4014C117.421 26.3144 116.768 27.86 115.461 29.0382C114.155 30.2164 112.323 30.8054 109.967 30.8054C108.334 30.8054 106.876 30.4788 105.593 29.8256V37.5594H102.303ZM105.593 27.2885C106.771 27.9534 108.089 28.2858 109.547 28.2858C111.005 28.2858 112.131 27.9767 112.924 27.3584C113.729 26.7402 114.131 25.8712 114.131 24.7513V17.4024C114.131 16.3293 113.735 15.501 112.942 14.9178C112.16 14.3346 111.198 14.0429 110.054 14.0429C108.923 14.0429 107.955 14.2762 107.15 14.7428C106.357 15.2094 105.838 15.6294 105.593 16.0026V27.2885ZM123.825 5.11926V30.4205H127.184V10.8759L134.288 22.4067H136.895L143.982 10.8059V30.4205H147.306V5.11926H144.192L135.583 19.2572L127.062 5.11926H123.825ZM159.362 30.8054C157.484 30.8054 156.026 30.298 154.988 29.2832C153.95 28.2566 153.431 26.9852 153.431 25.4687C153.431 24.6055 153.611 23.8881 153.973 23.3165C154.708 22.1501 156.901 21.0361 160.552 19.9745C162.663 19.3913 163.876 18.8897 164.191 18.4698C164.518 18.0498 164.699 17.7232 164.734 17.4899C164.769 17.245 164.786 16.86 164.786 16.3351C164.786 15.8102 164.571 15.2969 164.139 14.7953C163.719 14.2937 162.797 14.0429 161.374 14.0429C159.368 14.0429 158.137 14.4279 157.682 15.1978C157.449 15.5944 157.332 16.131 157.332 16.8075V17.6299H154.165V16.79C154.165 14.982 154.766 13.6522 155.968 12.8006C157.181 11.9491 158.989 11.5233 161.392 11.5233C163.795 11.5233 165.51 12.0716 166.536 13.1681C167.563 14.2529 168.076 15.8043 168.076 17.8224V25.7312C168.076 26.6994 168.198 27.3293 168.443 27.6209C168.688 27.9009 169.213 28.0408 170.018 28.0408L169.633 30.5605H168.968C167.802 30.5605 166.933 30.3388 166.361 29.8956C165.79 29.4406 165.352 28.7407 165.049 27.7959C164.081 29.2423 162.914 30.1522 161.549 30.5255C160.896 30.7121 160.167 30.8054 159.362 30.8054ZM161.007 22.2317C159.35 22.71 158.201 23.1882 157.56 23.6665C156.93 24.1448 156.615 24.8213 156.615 25.6962C156.615 26.5594 156.907 27.2126 157.49 27.6559C158.085 28.0992 158.796 28.3208 159.625 28.3208C160.464 28.3208 161.223 28.2158 161.899 28.0058C162.576 27.7842 163.182 27.4634 163.719 27.0435C164.267 26.6119 164.623 26.122 164.786 25.5737V20.2195C163.935 21.071 162.675 21.7418 161.007 22.2317ZM174.882 11.8733V37.5594H178.172V29.8256C179.455 30.4788 180.913 30.8054 182.546 30.8054C184.902 30.8054 186.734 30.2164 188.04 29.0382C189.347 27.86 190 26.3144 190 24.4014V17.6649C190 15.8102 189.399 14.3229 188.198 13.2031C187.008 12.0832 185.264 11.5233 182.966 11.5233C181.963 11.5233 180.995 11.6983 180.062 12.0482C179.128 12.3865 178.393 12.7948 177.857 13.273L177.472 11.8733H174.882ZM182.126 28.2858C180.668 28.2858 179.35 27.9534 178.172 27.2885V16.0026C178.417 15.6294 178.936 15.2094 179.729 14.7428C180.534 14.2762 181.502 14.0429 182.634 14.0429C183.777 14.0429 184.739 14.3346 185.521 14.9178C186.314 15.501 186.711 16.3293 186.711 17.4024V24.7513C186.711 25.8712 186.308 26.7402 185.503 27.3584C184.71 27.9767 183.584 28.2858 182.126 28.2858Z" fill="#9457FF"/>
</svg>
