<svg width="307" height="185" viewBox="0 0 307 185" fill="none" xmlns="http://www.w3.org/2000/svg">
<rect x="0.5" y="0.5" width="306" height="184" fill="#202746" stroke="#943BF2"/>
<rect x="2" y="1" width="85" height="183" fill="#171D37"/>
<rect x="11.001" y="100" width="52" height="5" rx="2.5" fill="#6679CC"/>
<rect x="11" y="110" width="18" height="5" rx="2.5" fill="#6679CC"/>
<rect x="11" y="120" width="24" height="5" rx="2.5" fill="#6679CC"/>
<rect x="11.001" y="60" width="52" height="5" rx="2.5" fill="#6679CC"/>
<rect x="11" y="70" width="18" height="5" rx="2.5" fill="#6FDDD6"/>
<rect x="11" y="80" width="24" height="5" rx="2.5" fill="#C57E2B"/>
<rect x="11" y="90" width="49" height="5" rx="2.5" fill="#6679CC"/>
<rect x="11.001" y="140" width="52" height="5" rx="2.5" fill="#6679CC"/>
<rect x="11" y="150" width="18" height="5" rx="2.5" fill="#6679CC"/>
<rect x="11" y="160" width="24" height="5" rx="2.5" fill="#6679CC"/>
<rect x="11" y="169" width="18" height="5" rx="2.5" fill="#6679CC"/>
<rect x="11" y="130" width="49" height="5" rx="2.5" fill="#6679CC"/>
<rect x="11.001" y="20" width="52" height="5" rx="2.5" fill="#6679CC"/>
<rect x="11" y="30" width="18" height="5" rx="2.5" fill="#6679CC"/>
<rect x="11" y="40" width="24" height="5" rx="2.5" fill="#6679CC"/>
<rect x="11" y="50" width="32" height="5" rx="2.5" fill="#6679CC"/>
<rect x="47" y="50" width="10" height="5" rx="2.5" fill="#C57E2B"/>
<rect x="2" y="1" width="304" height="10" fill="#141726"/>
<line x1="87.5" y1="11" x2="87.5" y2="185" stroke="#943BF2"/>
<line y1="10.5" x2="307" y2="10.5" stroke="#943BF2"/>
<path d="M155.265 110.433H231.895V108.433H155.265V110.433ZM231.895 110.433C238.671 110.433 245.194 113.008 250.143 117.637L251.509 116.176C246.19 111.201 239.179 108.433 231.895 108.433V110.433Z" fill="#A0A0A0"/>
<rect width="23.6313" height="5.9" transform="translate(135.854 106.287)" fill="#6FDDD6"/>
<rect width="24.4752" height="5.9" transform="translate(161.454 86.2267)" fill="#4362B1"/>
<rect width="31.227" height="5.9" transform="translate(198.87 96.0601)" fill="#4362B1"/>
<path d="M180.834 133.64H233.971V131.64H180.834V133.64ZM233.971 133.64C240.581 133.64 246.913 130.98 251.541 126.26L250.112 124.86C245.861 129.197 240.044 131.64 233.971 131.64V133.64Z" fill="#A0A0A0"/>
<path d="M161.454 88.98L151.454 83.2065V94.7535L161.454 88.98ZM112.562 118.307L115.619 104.789L113.669 104.348L110.612 117.866L112.562 118.307ZM134.151 89.98H152.454V87.98H134.151V89.98ZM115.619 104.789C117.578 96.129 125.273 89.98 134.151 89.98V87.98C124.338 87.98 115.833 94.7763 113.669 104.348L115.619 104.789Z" fill="#A0A0A0"/>
<path d="M198.87 98.8134L188.87 93.0399V104.587L198.87 98.8134ZM164.799 99.8134H189.87V97.8134H164.799V99.8134ZM148.427 107.332C152.528 102.559 158.507 99.8134 164.799 99.8134V97.8134C157.924 97.8134 151.391 100.814 146.91 106.028L148.427 107.332Z" fill="#A0A0A0"/>
<path d="M208.716 78.7533L198.716 72.9798V84.5268L208.716 78.7533ZM116.271 118.386L124.206 93.0705L122.297 92.4723L114.362 117.788L116.271 118.386ZM142.336 79.7533H199.716V77.7533H142.336V79.7533ZM124.206 93.0705C126.689 85.1464 134.031 79.7533 142.336 79.7533V77.7533C133.157 77.7533 125.042 83.714 122.297 92.4723L124.206 93.0705Z" fill="#A0A0A0"/>
<rect width="23.9933" height="5.9" transform="translate(208.74 76)" fill="#6FDDD6"/>
<path d="M281.113 122.413L271.113 116.64V128.187L281.113 122.413ZM123.193 123.413H272.113V121.413H123.193V123.413Z" fill="#A0A0A0"/>
<path d="M101.203 118.48H130.79L128.586 124.38H99L101.203 118.48Z" fill="#C61C38"/>
<rect width="21.6333" height="5.9" transform="translate(237.06 119.267)" fill="#6FDDD6"/>
<rect width="18.8487" height="5.50667" transform="translate(164.268 129.493)" fill="#6FDDD6"/>
<rect x="282.293" y="118.129" width="13.3733" height="7.78276" fill="#7F34EF"/>
<ellipse cx="288.98" cy="125.838" rx="6.68667" ry="1.68871" fill="#7F34EF"/>
<ellipse cx="288.98" cy="118.202" rx="6.68667" ry="1.68871" fill="#7F34EF"/>
<rect x="214" y="33" width="50" height="30" rx="5" fill="#141726"/>
<path d="M231.85 72.176L233.024 58.6162L241.627 62.7078L231.85 72.176Z" fill="#141726"/>
<rect x="221" y="42" width="37" height="5" rx="2.5" fill="#6679CC"/>
<rect x="221" y="50" width="37" height="5" rx="2.5" fill="#6679CC"/>
</svg>
