<svg width="150" height="150" viewBox="0 0 150 150" fill="none" xmlns="http://www.w3.org/2000/svg">
<path fill-rule="evenodd" clip-rule="evenodd" d="M150 75C150 116.421 116.421 150 75 150C33.5786 150 0 116.421 0 75C0 33.5786 33.5786 0 75 0C116.421 0 150 33.5786 150 75ZM144 74.5C144 112.332 113.332 143 75.5 143C37.6685 143 7 112.332 7 74.5C7 36.6685 37.6685 6 75.5 6C113.332 6 144 36.6685 144 74.5ZM79.0568 37.7431L101.63 85.445L112.286 108H103.587L97.0851 94.0331L95.0083 89.5563L75.1429 45.6L66.1247 64.4013L55.0298 89.5563L50.8043 98.7456L46.6427 108H38L71.4206 37.7431L75.1429 30L79.0568 37.7431Z" fill="black"/>
</svg>
