<svg width="14" height="14" viewBox="0 0 14 14" fill="none" xmlns="http://www.w3.org/2000/svg">
<path d="M3.50012 14C5.15698 14 6.50012 12.6569 6.50012 11C6.50012 9.34315 5.15698 8 3.50012 8C1.84327 8 0.500122 9.34315 0.500122 11C0.500122 12.6569 1.84327 14 3.50012 14Z" fill="#424242"/>
<path fill-rule="evenodd" clip-rule="evenodd" d="M10.0701 0.14L13.3501 3.44L13.5001 3.8V13.5L13.0001 14H7.50012V13H12.5001V5H9.00012L8.50012 4.5V1H2.50012V7H1.50012V0.5L2.00012 0H9.72012L10.0701 0.14ZM9.50012 4H12.5001L9.50012 1V4Z" fill="#424242"/>
</svg>
