<svg id="Layer_1" data-name="Layer 1" xmlns="http://www.w3.org/2000/svg" viewBox="0 0 785.59 96"><defs><style>.cls-1{fill:#ff07aa;fill-rule:evenodd;}</style></defs><path class="cls-1" d="M136.05,0h26.88A48.53,48.53,0,0,1,176.1,1.66a28.2,28.2,0,0,1,10.15,5.05,22.41,22.41,0,0,1,6.52,8.52,29.41,29.41,0,0,1,2.28,12.05,28.59,28.59,0,0,1-2.35,12,23.06,23.06,0,0,1-6.58,8.52A29.05,29.05,0,0,1,175.9,53a47.24,47.24,0,0,1-13.23,1.74H145.73V95.19h-9.68Zm9.41,46.33h16.4q11.41,0,17.34-4.76t5.91-13.86q0-9.53-6.12-13.93t-17.13-4.4h-16.4Z"/><path class="cls-1" d="M239.82,0H266.7a48.53,48.53,0,0,1,13.17,1.66A28.2,28.2,0,0,1,290,6.71a22.41,22.41,0,0,1,6.52,8.52,29.41,29.41,0,0,1,2.28,12.05,28.59,28.59,0,0,1-2.35,12,23.06,23.06,0,0,1-6.58,8.52A29.05,29.05,0,0,1,279.67,53a47.24,47.24,0,0,1-13.23,1.74H249.5V95.19h-9.68Zm9.41,46.33h16.4q11.42,0,17.34-4.76t5.91-13.86q0-9.53-6.12-13.93t-17.13-4.4h-16.4Z"/><polygon id="Path" class="cls-1" points="348.67 87.32 397.05 87.32 392.85 96 339 96 339 0 348.67 0 348.67 87.32"/><polygon class="cls-1" points="637.98 81.76 638.25 81.76 638.25 0 648 0 648 96 635.81 96 580.02 13.42 579.75 13.42 579.75 96 570 96 570 0 582.19 0 637.98 81.76"/><path class="cls-1" d="M700.59,0H732a55.15,55.15,0,0,1,17.68,3,48.48,48.48,0,0,1,16,9,45.66,45.66,0,0,1,11.55,15.05,47.29,47.29,0,0,1,4.4,21q0,12.07-4.4,21a45.9,45.9,0,0,1-11.55,15,48.48,48.48,0,0,1-16,9A55.15,55.15,0,0,1,732,96H700.59Zm9.34,87.46H729a47.14,47.14,0,0,0,18.62-3.39,38.84,38.84,0,0,0,13.14-8.88,36.31,36.31,0,0,0,7.81-12.55,41.76,41.76,0,0,0,0-29,36.41,36.41,0,0,0-7.81-12.55,38.84,38.84,0,0,0-13.14-8.88A47.14,47.14,0,0,0,729,8.81H709.93Z"/><polygon class="cls-1" points="79.66 68.24 51.4 9.53 46.5 0 41.84 9.53 0 96 10.82 96 16.03 84.61 21.32 73.3 35.21 42.34 46.5 19.2 71.37 73.3 73.97 78.81 82.11 96 93 96 79.66 68.24"/><polygon class="cls-1" points="513.66 68.24 485.39 9.53 480.5 0 475.84 9.53 434 96 444.82 96 450.03 84.61 455.32 73.3 469.21 42.34 480.5 19.2 505.37 73.3 507.97 78.81 516.11 96 527 96 513.66 68.24"/></svg>