<svg width="24" height="24" viewBox="0 0 16 16" fill="none" xmlns="http://www.w3.org/2000/svg">
<path d="M10.6149 7.6C10.6149 8.088 10.2034 8.488 9.68229 8.488C9.17029 8.488 8.74971 8.088 8.74971 7.6C8.74971 7.112 9.16114 6.712 9.68229 6.712C10.2034 6.712 10.6149 7.112 10.6149 7.6ZM6.34514 6.712C5.824 6.712 5.41257 7.112 5.41257 7.6C5.41257 8.088 5.83314 8.488 6.34514 8.488C6.86629 8.488 7.27771 8.088 7.27771 7.6C7.28686 7.112 6.86629 6.712 6.34514 6.712ZM16 1.648V16C13.6966 14.2189 14.4333 14.8085 11.7577 12.632L12.2423 14.112H1.87429C0.841143 14.112 0 13.376 0 12.464V1.648C0 0.736 0.841143 0 1.87429 0H14.1257C15.1589 0 16 0.736 16 1.648ZM13.3943 9.232C13.3943 6.656 12.0777 4.568 12.0777 4.568C10.7611 3.704 9.50857 3.728 9.50857 3.728L9.38057 3.856C10.9349 4.272 11.6571 4.872 11.6571 4.872C9.48532 3.83047 6.93414 3.83028 4.82743 4.64C4.48914 4.776 4.288 4.872 4.288 4.872C4.288 4.872 5.04686 4.24 6.69257 3.824L6.60114 3.728C6.60114 3.728 5.34857 3.704 4.032 4.568C4.032 4.568 2.71543 6.656 2.71543 9.232C2.71543 9.232 3.48343 10.392 5.504 10.448C5.504 10.448 5.84229 10.088 6.11657 9.784C4.95543 9.48 4.51657 8.84 4.51657 8.84C4.65107 8.92238 4.87286 9.02916 4.89143 9.04C6.43464 9.79619 8.62672 10.0439 10.5966 9.32C10.9166 9.216 11.2731 9.064 11.648 8.848C11.648 8.848 11.1909 9.504 9.99314 9.8C10.2674 10.104 10.5966 10.448 10.5966 10.448C12.6171 10.392 13.3943 9.232 13.3943 9.232V9.232Z" fill="#eaeaea"/>
</svg>
