<svg width="24" height="24" viewBox="0 0 16 16" fill="none" xmlns="http://www.w3.org/2000/svg">
<g clip-path="url(#clip0)">
<path d="M6.20333 10.2719C6.20333 10.925 5.84 11.9937 4.98 11.9937C4.12 11.9937 3.75667 10.925 3.75667 10.2719C3.75667 9.61875 4.12 8.55 4.98 8.55C5.84 8.55 6.20333 9.61875 6.20333 10.2719V10.2719ZM16 8.69375C16 9.69063 15.8933 10.7469 15.4167 11.6625C14.1533 14.0563 10.68 14 8.19333 14C5.66667 14 1.98667 14.0844 0.673333 11.6625C0.186667 10.7563 0 9.69063 0 8.69375C0 7.38438 0.463333 6.14688 1.38333 5.14375C1.21 4.65 1.12667 4.13125 1.12667 3.61875C1.12667 2.94688 1.29 2.60938 1.61333 2C3.12333 2 4.09 2.28125 5.24 3.125C6.20667 2.90937 7.2 2.8125 8.19667 2.8125C9.09667 2.8125 10.0033 2.90312 10.8767 3.1C12.01 2.26562 12.9767 2 14.47 2C14.7967 2.60938 14.9567 2.94688 14.9567 3.61875C14.9567 4.13125 14.87 4.64062 14.7 5.125C15.6167 6.1375 16 7.38438 16 8.69375V8.69375ZM13.8567 10.2719C13.8567 8.9 12.9667 7.69063 11.4067 7.69063C10.7767 7.69063 10.1733 7.79688 9.54 7.87813C9.04333 7.95 8.54667 7.97813 8.03667 7.97813C7.53 7.97813 7.03333 7.95 6.53333 7.87813C5.91 7.79688 5.3 7.69063 4.66667 7.69063C3.10667 7.69063 2.21667 8.9 2.21667 10.2719C2.21667 13.0156 4.89667 13.4375 7.23 13.4375H8.83667C11.18 13.4375 13.8567 13.0188 13.8567 10.2719V10.2719ZM11.1033 8.55C10.2433 8.55 9.88 9.61875 9.88 10.2719C9.88 10.925 10.2433 11.9937 11.1033 11.9937C11.9633 11.9937 12.3267 10.925 12.3267 10.2719C12.3267 9.61875 11.9633 8.55 11.1033 8.55Z" fill="#eaeaea"/>
</g>
<defs>
<clipPath id="clip0">
<rect width="16" height="16" fill="white"/>
</clipPath>
</defs>
</svg>
