<svg width="24" height="24" viewBox="0 0 16 13" fill="none" xmlns="http://www.w3.org/2000/svg">
<path d="M14.3554 3.23858C14.3655 3.3807 14.3655 3.52286 14.3655 3.66498C14.3655 8 11.066 12.995 5.03555 12.995C3.17767 12.995 1.45179 12.4569 0 11.5229C0.26397 11.5533 0.517752 11.5635 0.791878 11.5635C2.32485 11.5635 3.73605 11.0457 4.86296 10.1625C3.42133 10.132 2.2132 9.18785 1.79694 7.88834C2.00001 7.91878 2.20304 7.93909 2.41626 7.93909C2.71067 7.93909 3.00511 7.89847 3.2792 7.82744C1.77666 7.52284 0.649721 6.20306 0.649721 4.60914V4.56855C1.08625 4.81221 1.59391 4.96449 2.13195 4.98477C1.24869 4.39592 0.670034 3.39086 0.670034 2.25379C0.670034 1.64466 0.832441 1.08629 1.11672 0.598971C2.73095 2.58882 5.15736 3.8883 7.87816 4.03045C7.82741 3.7868 7.79694 3.53301 7.79694 3.2792C7.79694 1.47207 9.25888 0 11.0761 0C12.0203 0 12.8731 0.395939 13.4721 1.03554C14.2132 0.89341 14.9238 0.619284 15.5533 0.243657C15.3096 1.0051 14.7919 1.64469 14.1117 2.05076C14.7716 1.97973 15.4112 1.79694 16 1.54316C15.5534 2.19288 14.995 2.77154 14.3554 3.23858V3.23858Z" fill="#eaeaea"/>
</svg>
